<?xml version="1.0" encoding="UTF-8"?>
<svg width="213px" height="146px" viewBox="0 0 213 146" version="1.1" xmlns="http://www.w3.org/2000/svg" xmlns:xlink="http://www.w3.org/1999/xlink">
    <title>A341BA05-7EA7-4DB2-A1E1-D958DBD45AE1@1x</title>
    <g id="System_Brand" stroke="none" stroke-width="1" fill="none" fill-rule="evenodd">
        <g id="System/Illustration-Library" transform="translate(-204.000000, -782.000000)">
            <g id="Group" transform="translate(205.000000, 783.030000)">
                <path d="M144.18,72.09 C144.18,111.904 111.904,144.18 72.09,144.18 C32.275,144.18 0,111.904 0,72.09 C0,32.276 32.275,0 72.09,0 C111.904,0 144.18,32.276 144.18,72.09 Z" id="1" stroke="#355FFE"></path>
                <g id="3" transform="translate(33.201100, 0.000000)" stroke="#58BBBD">
                    <path d="M66.4031,72.09 C66.4031,90.427 51.5381,105.292 33.2011,105.292 C14.8651,105.292 9.99999975e-05,90.427 9.99999975e-05,72.09 C9.99999975e-05,53.753 14.8651,38.888 33.2011,38.888 C51.5381,38.888 66.4031,53.753 66.4031,72.09 Z" id="3-A"></path>
                    <path d="M177.382,72.09 C177.382,111.904 145.106,144.18 105.292,144.18 C65.477,144.18 33.202,111.904 33.202,72.09 C33.202,32.276 65.477,0 105.292,0 C145.106,0 177.382,32.276 177.382,72.09 Z" id="3-D"></path>
                    <polyline id="3-C" points="157.8916 65.5836 164.3976 72.0896 157.8916 78.5966"></polyline>
                    <line x1="0" y1="72.09" x2="164.398" y2="72.09" id="3-B"></line>
                </g>
                <path d="M177.3816,72.09 C177.3816,111.904 145.1056,144.18 105.2916,144.18 C65.4766,144.18 33.2016,111.904 33.2016,72.09 C33.2016,32.276 65.4766,0 105.2916,0 C145.1056,0 177.3816,32.276 177.3816,72.09 Z" id="2" stroke="#B7FA98"></path>
            </g>
        </g>
    </g>
</svg>