<?xml version="1.0" encoding="UTF-8"?>
<svg width="392px" height="167px" viewBox="0 0 392 167" version="1.1" xmlns="http://www.w3.org/2000/svg" xmlns:xlink="http://www.w3.org/1999/xlink">
    <title>476F9D65-77C3-4145-B153-453C07354610@1x</title>
    <g id="System_Brand" stroke="none" stroke-width="1" fill="none" fill-rule="evenodd">
        <g id="System/Illustration-Library" transform="translate(-108.000000, -474.000000)">
            <g id="Group" transform="translate(104.000000, 462.010000)">
                <g id="a" transform="translate(4.000000, 12.000000)" fill="#D9DCE7" fill-rule="nonzero">
                    <g id="Group">
                        <circle id="Oval" cx="15.94" cy="0.94" r="1"></circle>
                        <circle id="Oval" cx="0.94" cy="0.94" r="1"></circle>
                        <circle id="Oval" cx="30.95" cy="0.94" r="1"></circle>
                        <circle id="Oval" cx="45.96" cy="0.94" r="1"></circle>
                        <circle id="Oval" cx="60.97" cy="0.94" r="1"></circle>
                        <circle id="Oval" cx="75.99" cy="0.94" r="1"></circle>
                        <circle id="Oval" cx="91" cy="0.94" r="1"></circle>
                        <circle id="Oval" cx="106.01" cy="0.94" r="1"></circle>
                        <circle id="Oval" cx="121.02" cy="0.94" r="1"></circle>
                        <circle id="Oval" cx="136.03" cy="0.94" r="1"></circle>
                        <circle id="Oval" cx="151.04" cy="0.94" r="1"></circle>
                        <circle id="Oval" cx="166.05" cy="0.94" r="1"></circle>
                        <circle id="Oval" cx="181.06" cy="0.94" r="1"></circle>
                        <circle id="Oval" cx="196.08" cy="0.94" r="1"></circle>
                        <circle id="Oval" cx="211.09" cy="0.94" r="1"></circle>
                        <circle id="Oval" cx="226.1" cy="0.94" r="1"></circle>
                        <circle id="Oval" cx="241.11" cy="0.94" r="1"></circle>
                        <circle id="Oval" cx="256.12" cy="0.94" r="1"></circle>
                        <circle id="Oval" cx="271.13" cy="0.94" r="1"></circle>
                        <circle id="Oval" cx="286.14" cy="0.94" r="1"></circle>
                        <circle id="Oval" cx="301.15" cy="0.94" r="1"></circle>
                        <circle id="Oval" cx="316.17" cy="0.94" r="1"></circle>
                        <circle id="Oval" cx="331.18" cy="0.94" r="1"></circle>
                        <circle id="Oval" cx="346.19" cy="0.94" r="1"></circle>
                        <circle id="Oval" cx="361.2" cy="0.94" r="1"></circle>
                        <circle id="Oval" cx="376.21" cy="0.94" r="1"></circle>
                        <circle id="Oval" cx="15.94" cy="15.95" r="1"></circle>
                        <circle id="Oval" cx="0.94" cy="15.95" r="1"></circle>
                        <circle id="Oval" cx="30.95" cy="15.95" r="1"></circle>
                        <circle id="Oval" cx="45.96" cy="15.95" r="1"></circle>
                        <circle id="Oval" cx="60.97" cy="15.95" r="1"></circle>
                        <circle id="Oval" cx="75.99" cy="15.95" r="1"></circle>
                        <circle id="Oval" cx="91" cy="15.95" r="1"></circle>
                        <circle id="Oval" cx="106.01" cy="15.95" r="1"></circle>
                        <circle id="Oval" cx="121.02" cy="15.95" r="1"></circle>
                        <circle id="Oval" cx="136.03" cy="15.95" r="1"></circle>
                        <circle id="Oval" cx="151.04" cy="15.95" r="1"></circle>
                        <circle id="Oval" cx="166.05" cy="15.95" r="1"></circle>
                        <circle id="Oval" cx="181.06" cy="15.95" r="1"></circle>
                        <circle id="Oval" cx="196.08" cy="15.95" r="1"></circle>
                        <circle id="Oval" cx="211.09" cy="15.95" r="1"></circle>
                        <circle id="Oval" cx="226.1" cy="15.95" r="1"></circle>
                        <circle id="Oval" cx="241.11" cy="15.95" r="1"></circle>
                        <circle id="Oval" cx="256.12" cy="15.95" r="1"></circle>
                        <circle id="Oval" cx="271.13" cy="15.95" r="1"></circle>
                        <circle id="Oval" cx="286.14" cy="15.95" r="1"></circle>
                        <circle id="Oval" cx="301.15" cy="15.95" r="1"></circle>
                        <circle id="Oval" cx="316.17" cy="15.95" r="1"></circle>
                        <circle id="Oval" cx="331.18" cy="15.95" r="1"></circle>
                        <circle id="Oval" cx="346.19" cy="15.95" r="1"></circle>
                        <circle id="Oval" cx="361.2" cy="15.95" r="1"></circle>
                        <circle id="Oval" cx="376.21" cy="15.95" r="1"></circle>
                        <circle id="Oval" cx="15.94" cy="30.96" r="1"></circle>
                        <circle id="Oval" cx="0.94" cy="30.96" r="1"></circle>
                        <circle id="Oval" cx="30.95" cy="30.96" r="1"></circle>
                        <circle id="Oval" cx="45.96" cy="30.96" r="1"></circle>
                        <circle id="Oval" cx="60.97" cy="30.96" r="1"></circle>
                        <circle id="Oval" cx="75.99" cy="30.96" r="1"></circle>
                        <circle id="Oval" cx="91" cy="30.96" r="1"></circle>
                        <circle id="Oval" cx="106.01" cy="30.96" r="1"></circle>
                        <circle id="Oval" cx="121.02" cy="30.96" r="1"></circle>
                        <circle id="Oval" cx="136.03" cy="30.96" r="1"></circle>
                        <circle id="Oval" cx="151.04" cy="30.96" r="1"></circle>
                        <circle id="Oval" cx="166.05" cy="30.96" r="1"></circle>
                        <circle id="Oval" cx="181.06" cy="30.96" r="1"></circle>
                        <circle id="Oval" cx="196.08" cy="30.96" r="1"></circle>
                        <circle id="Oval" cx="211.09" cy="30.96" r="1"></circle>
                        <circle id="Oval" cx="226.1" cy="30.96" r="1"></circle>
                        <circle id="Oval" cx="241.11" cy="30.96" r="1"></circle>
                        <circle id="Oval" cx="256.12" cy="30.96" r="1"></circle>
                        <circle id="Oval" cx="271.13" cy="30.96" r="1"></circle>
                        <circle id="Oval" cx="286.14" cy="30.96" r="1"></circle>
                        <circle id="Oval" cx="301.15" cy="30.96" r="1"></circle>
                        <circle id="Oval" cx="316.17" cy="30.96" r="1"></circle>
                        <circle id="Oval" cx="331.18" cy="30.96" r="1"></circle>
                        <circle id="Oval" cx="346.19" cy="30.96" r="1"></circle>
                        <circle id="Oval" cx="361.2" cy="30.96" r="1"></circle>
                        <circle id="Oval" cx="376.21" cy="30.96" r="1"></circle>
                        <circle id="Oval" cx="15.94" cy="45.97" r="1"></circle>
                        <circle id="Oval" cx="0.94" cy="45.97" r="1"></circle>
                        <circle id="Oval" cx="30.95" cy="45.97" r="1"></circle>
                        <circle id="Oval" cx="45.96" cy="45.97" r="1"></circle>
                        <circle id="Oval" cx="60.97" cy="45.97" r="1"></circle>
                        <circle id="Oval" cx="75.99" cy="45.97" r="1"></circle>
                        <circle id="Oval" cx="91" cy="45.97" r="1"></circle>
                        <circle id="Oval" cx="106.01" cy="45.97" r="1"></circle>
                        <circle id="Oval" cx="121.02" cy="45.97" r="1"></circle>
                        <circle id="Oval" cx="136.03" cy="45.97" r="1"></circle>
                        <circle id="Oval" cx="151.04" cy="45.97" r="1"></circle>
                        <circle id="Oval" cx="166.05" cy="45.97" r="1"></circle>
                        <circle id="Oval" cx="181.06" cy="45.97" r="1"></circle>
                        <circle id="Oval" cx="196.08" cy="45.97" r="1"></circle>
                        <circle id="Oval" cx="211.09" cy="45.97" r="1"></circle>
                        <circle id="Oval" cx="226.1" cy="45.97" r="1"></circle>
                        <circle id="Oval" cx="241.11" cy="45.97" r="1"></circle>
                        <circle id="Oval" cx="256.12" cy="45.97" r="1"></circle>
                        <circle id="Oval" cx="271.13" cy="45.97" r="1"></circle>
                        <circle id="Oval" cx="286.14" cy="45.97" r="1"></circle>
                        <circle id="Oval" cx="301.15" cy="45.97" r="1"></circle>
                        <circle id="Oval" cx="316.17" cy="45.97" r="1"></circle>
                        <circle id="Oval" cx="331.18" cy="45.97" r="1"></circle>
                        <circle id="Oval" cx="346.19" cy="45.97" r="1"></circle>
                        <circle id="Oval" cx="361.2" cy="45.97" r="1"></circle>
                        <circle id="Oval" cx="376.21" cy="45.97" r="1"></circle>
                        <circle id="Oval" cx="15.94" cy="60.98" r="1"></circle>
                        <circle id="Oval" cx="0.94" cy="60.98" r="1"></circle>
                        <circle id="Oval" cx="30.95" cy="60.98" r="1"></circle>
                        <circle id="Oval" cx="45.96" cy="60.98" r="1"></circle>
                        <circle id="Oval" cx="60.97" cy="60.98" r="1"></circle>
                        <circle id="Oval" cx="75.99" cy="60.98" r="1"></circle>
                        <circle id="Oval" cx="91" cy="60.98" r="1"></circle>
                        <circle id="Oval" cx="106.01" cy="60.98" r="1"></circle>
                        <circle id="Oval" cx="121.02" cy="60.98" r="1"></circle>
                        <circle id="Oval" cx="136.03" cy="60.98" r="1"></circle>
                        <circle id="Oval" cx="151.04" cy="60.98" r="1"></circle>
                        <circle id="Oval" cx="166.05" cy="60.98" r="1"></circle>
                        <circle id="Oval" cx="181.06" cy="60.98" r="1"></circle>
                        <circle id="Oval" cx="196.08" cy="60.98" r="1"></circle>
                        <circle id="Oval" cx="211.09" cy="60.98" r="1"></circle>
                        <circle id="Oval" cx="226.1" cy="60.98" r="1"></circle>
                        <circle id="Oval" cx="241.11" cy="60.98" r="1"></circle>
                        <circle id="Oval" cx="256.12" cy="60.98" r="1"></circle>
                        <circle id="Oval" cx="271.13" cy="60.98" r="1"></circle>
                        <circle id="Oval" cx="286.14" cy="60.98" r="1"></circle>
                        <circle id="Oval" cx="301.15" cy="60.98" r="1"></circle>
                        <circle id="Oval" cx="316.17" cy="60.98" r="1"></circle>
                        <circle id="Oval" cx="331.18" cy="60.98" r="1"></circle>
                        <circle id="Oval" cx="346.19" cy="60.98" r="1"></circle>
                        <circle id="Oval" cx="361.2" cy="60.98" r="1"></circle>
                        <circle id="Oval" cx="376.21" cy="60.98" r="1"></circle>
                        <circle id="Oval" cx="15.94" cy="75.99" r="1"></circle>
                        <circle id="Oval" cx="0.94" cy="75.99" r="1"></circle>
                        <circle id="Oval" cx="30.95" cy="75.99" r="1"></circle>
                        <circle id="Oval" cx="45.96" cy="75.99" r="1"></circle>
                        <circle id="Oval" cx="60.97" cy="75.99" r="1"></circle>
                        <circle id="Oval" cx="75.99" cy="75.99" r="1"></circle>
                        <circle id="Oval" cx="91" cy="75.99" r="1"></circle>
                        <circle id="Oval" cx="106.01" cy="75.99" r="1"></circle>
                        <circle id="Oval" cx="121.02" cy="75.99" r="1"></circle>
                        <circle id="Oval" cx="136.03" cy="75.99" r="1"></circle>
                        <circle id="Oval" cx="151.04" cy="75.99" r="1"></circle>
                        <circle id="Oval" cx="166.05" cy="75.99" r="1"></circle>
                        <circle id="Oval" cx="181.06" cy="75.99" r="1"></circle>
                        <circle id="Oval" cx="196.08" cy="75.99" r="1"></circle>
                        <circle id="Oval" cx="211.09" cy="75.99" r="1"></circle>
                        <circle id="Oval" cx="226.1" cy="75.99" r="1"></circle>
                        <circle id="Oval" cx="241.11" cy="75.99" r="1"></circle>
                        <circle id="Oval" cx="256.12" cy="75.99" r="1"></circle>
                        <circle id="Oval" cx="271.13" cy="75.99" r="1"></circle>
                        <circle id="Oval" cx="286.14" cy="75.99" r="1"></circle>
                        <circle id="Oval" cx="301.15" cy="75.99" r="1"></circle>
                        <circle id="Oval" cx="316.17" cy="75.99" r="1"></circle>
                        <circle id="Oval" cx="331.18" cy="75.99" r="1"></circle>
                        <circle id="Oval" cx="346.19" cy="75.99" r="1"></circle>
                        <circle id="Oval" cx="361.2" cy="75.99" r="1"></circle>
                        <circle id="Oval" cx="376.21" cy="75.99" r="1"></circle>
                        <circle id="Oval" cx="15.94" cy="91.01" r="1"></circle>
                        <circle id="Oval" cx="0.94" cy="91.01" r="1"></circle>
                        <circle id="Oval" cx="30.95" cy="91.01" r="1"></circle>
                        <circle id="Oval" cx="45.96" cy="91.01" r="1"></circle>
                        <circle id="Oval" cx="60.97" cy="91.01" r="1"></circle>
                        <circle id="Oval" cx="75.99" cy="91.01" r="1"></circle>
                        <circle id="Oval" cx="91" cy="91.01" r="1"></circle>
                        <circle id="Oval" cx="106.01" cy="91.01" r="1"></circle>
                        <circle id="Oval" cx="121.02" cy="91.01" r="1"></circle>
                        <circle id="Oval" cx="136.03" cy="91.01" r="1"></circle>
                        <circle id="Oval" cx="151.04" cy="91.01" r="1"></circle>
                        <circle id="Oval" cx="166.05" cy="91.01" r="1"></circle>
                        <circle id="Oval" cx="181.06" cy="91.01" r="1"></circle>
                        <circle id="Oval" cx="196.08" cy="91.01" r="1"></circle>
                        <circle id="Oval" cx="211.09" cy="91.01" r="1"></circle>
                        <circle id="Oval" cx="226.1" cy="91.01" r="1"></circle>
                        <circle id="Oval" cx="241.11" cy="91.01" r="1"></circle>
                        <circle id="Oval" cx="256.12" cy="91.01" r="1"></circle>
                        <circle id="Oval" cx="271.13" cy="91.01" r="1"></circle>
                        <circle id="Oval" cx="286.14" cy="91.01" r="1"></circle>
                        <circle id="Oval" cx="301.15" cy="91.01" r="1"></circle>
                        <circle id="Oval" cx="316.17" cy="91.01" r="1"></circle>
                        <circle id="Oval" cx="331.18" cy="91.01" r="1"></circle>
                        <circle id="Oval" cx="346.19" cy="91.01" r="1"></circle>
                        <circle id="Oval" cx="361.2" cy="91.01" r="1"></circle>
                        <circle id="Oval" cx="376.21" cy="91.01" r="1"></circle>
                        <circle id="Oval" cx="15.94" cy="106.02" r="1"></circle>
                        <circle id="Oval" cx="0.94" cy="106.02" r="1"></circle>
                        <circle id="Oval" cx="30.95" cy="106.02" r="1"></circle>
                        <circle id="Oval" cx="45.96" cy="106.02" r="1"></circle>
                        <circle id="Oval" cx="60.97" cy="106.02" r="1"></circle>
                        <circle id="Oval" cx="75.99" cy="106.02" r="1"></circle>
                        <circle id="Oval" cx="91" cy="106.02" r="1"></circle>
                        <circle id="Oval" cx="106.01" cy="106.02" r="1"></circle>
                        <circle id="Oval" cx="121.02" cy="106.02" r="1"></circle>
                        <circle id="Oval" cx="136.03" cy="106.02" r="1"></circle>
                        <circle id="Oval" cx="151.04" cy="106.02" r="1"></circle>
                        <circle id="Oval" cx="166.05" cy="106.02" r="1"></circle>
                        <circle id="Oval" cx="181.06" cy="106.02" r="1"></circle>
                        <circle id="Oval" cx="196.08" cy="106.02" r="1"></circle>
                        <circle id="Oval" cx="211.09" cy="106.02" r="1"></circle>
                        <circle id="Oval" cx="226.1" cy="106.02" r="1"></circle>
                        <circle id="Oval" cx="241.11" cy="106.02" r="1"></circle>
                        <circle id="Oval" cx="256.12" cy="106.02" r="1"></circle>
                        <circle id="Oval" cx="271.13" cy="106.02" r="1"></circle>
                        <circle id="Oval" cx="286.14" cy="106.02" r="1"></circle>
                        <circle id="Oval" cx="301.15" cy="106.02" r="1"></circle>
                        <circle id="Oval" cx="316.17" cy="106.02" r="1"></circle>
                        <circle id="Oval" cx="331.18" cy="106.02" r="1"></circle>
                        <circle id="Oval" cx="346.19" cy="106.02" r="1"></circle>
                        <circle id="Oval" cx="361.2" cy="106.02" r="1"></circle>
                        <circle id="Oval" cx="376.21" cy="106.02" r="1"></circle>
                        <circle id="Oval" cx="15.94" cy="121.03" r="1"></circle>
                        <circle id="Oval" cx="0.94" cy="121.03" r="1"></circle>
                        <circle id="Oval" cx="30.95" cy="121.03" r="1"></circle>
                        <circle id="Oval" cx="45.96" cy="121.03" r="1"></circle>
                        <circle id="Oval" cx="60.97" cy="121.03" r="1"></circle>
                        <circle id="Oval" cx="75.99" cy="121.03" r="1"></circle>
                        <circle id="Oval" cx="91" cy="121.03" r="1"></circle>
                        <circle id="Oval" cx="106.01" cy="121.03" r="1"></circle>
                        <circle id="Oval" cx="121.02" cy="121.03" r="1"></circle>
                        <circle id="Oval" cx="136.03" cy="121.03" r="1"></circle>
                        <circle id="Oval" cx="151.04" cy="121.03" r="1"></circle>
                        <circle id="Oval" cx="166.05" cy="121.03" r="1"></circle>
                        <circle id="Oval" cx="181.06" cy="121.03" r="1"></circle>
                        <circle id="Oval" cx="196.08" cy="121.03" r="1"></circle>
                        <circle id="Oval" cx="211.09" cy="121.03" r="1"></circle>
                        <circle id="Oval" cx="226.1" cy="121.03" r="1"></circle>
                        <circle id="Oval" cx="241.11" cy="121.03" r="1"></circle>
                        <circle id="Oval" cx="256.12" cy="121.03" r="1"></circle>
                        <circle id="Oval" cx="271.13" cy="121.03" r="1"></circle>
                        <circle id="Oval" cx="286.14" cy="121.03" r="1"></circle>
                        <circle id="Oval" cx="301.15" cy="121.03" r="1"></circle>
                        <circle id="Oval" cx="316.17" cy="121.03" r="1"></circle>
                        <circle id="Oval" cx="331.18" cy="121.03" r="1"></circle>
                        <circle id="Oval" cx="346.19" cy="121.03" r="1"></circle>
                        <circle id="Oval" cx="361.2" cy="121.03" r="1"></circle>
                        <circle id="Oval" cx="376.21" cy="121.03" r="1"></circle>
                        <circle id="Oval" cx="15.94" cy="136.04" r="1"></circle>
                        <circle id="Oval" cx="0.94" cy="136.04" r="1"></circle>
                        <circle id="Oval" cx="30.95" cy="136.04" r="1"></circle>
                        <circle id="Oval" cx="45.96" cy="136.04" r="1"></circle>
                        <circle id="Oval" cx="60.97" cy="136.04" r="1"></circle>
                        <circle id="Oval" cx="75.99" cy="136.04" r="1"></circle>
                        <circle id="Oval" cx="91" cy="136.04" r="1"></circle>
                        <circle id="Oval" cx="106.01" cy="136.04" r="1"></circle>
                        <circle id="Oval" cx="121.02" cy="136.04" r="1"></circle>
                        <circle id="Oval" cx="136.03" cy="136.04" r="1"></circle>
                        <circle id="Oval" cx="151.04" cy="136.04" r="1"></circle>
                        <circle id="Oval" cx="166.05" cy="136.04" r="1"></circle>
                        <circle id="Oval" cx="181.06" cy="136.04" r="1"></circle>
                        <circle id="Oval" cx="196.08" cy="136.04" r="1"></circle>
                        <circle id="Oval" cx="211.09" cy="136.04" r="1"></circle>
                        <circle id="Oval" cx="226.1" cy="136.04" r="1"></circle>
                        <circle id="Oval" cx="241.11" cy="136.04" r="1"></circle>
                        <circle id="Oval" cx="256.12" cy="136.04" r="1"></circle>
                        <circle id="Oval" cx="271.13" cy="136.04" r="1"></circle>
                        <circle id="Oval" cx="286.14" cy="136.04" r="1"></circle>
                        <circle id="Oval" cx="301.15" cy="136.04" r="1"></circle>
                        <circle id="Oval" cx="316.17" cy="136.04" r="1"></circle>
                        <circle id="Oval" cx="331.18" cy="136.04" r="1"></circle>
                        <circle id="Oval" cx="346.19" cy="136.04" r="1"></circle>
                        <circle id="Oval" cx="361.2" cy="136.04" r="1"></circle>
                        <circle id="Oval" cx="376.21" cy="136.04" r="1"></circle>
                        <circle id="Oval" cx="15.94" cy="151.05" r="1"></circle>
                        <circle id="Oval" cx="0.94" cy="151.05" r="1"></circle>
                        <circle id="Oval" cx="30.95" cy="151.05" r="1"></circle>
                        <circle id="Oval" cx="45.96" cy="151.05" r="1"></circle>
                        <circle id="Oval" cx="60.97" cy="151.05" r="1"></circle>
                        <circle id="Oval" cx="75.99" cy="151.05" r="1"></circle>
                        <circle id="Oval" cx="91" cy="151.05" r="1"></circle>
                        <circle id="Oval" cx="106.01" cy="151.05" r="1"></circle>
                        <circle id="Oval" cx="121.02" cy="151.05" r="1"></circle>
                        <circle id="Oval" cx="136.03" cy="151.05" r="1"></circle>
                        <circle id="Oval" cx="151.04" cy="151.05" r="1"></circle>
                        <circle id="Oval" cx="166.05" cy="151.05" r="1"></circle>
                        <circle id="Oval" cx="181.06" cy="151.05" r="1"></circle>
                        <circle id="Oval" cx="196.08" cy="151.05" r="1"></circle>
                        <circle id="Oval" cx="211.09" cy="151.05" r="1"></circle>
                        <circle id="Oval" cx="226.1" cy="151.05" r="1"></circle>
                        <circle id="Oval" cx="241.11" cy="151.05" r="1"></circle>
                        <circle id="Oval" cx="256.12" cy="151.05" r="1"></circle>
                        <circle id="Oval" cx="271.13" cy="151.05" r="1"></circle>
                        <circle id="Oval" cx="286.14" cy="151.05" r="1"></circle>
                        <circle id="Oval" cx="301.15" cy="151.05" r="1"></circle>
                        <circle id="Oval" cx="316.17" cy="151.05" r="1"></circle>
                        <circle id="Oval" cx="331.18" cy="151.05" r="1"></circle>
                        <circle id="Oval" cx="346.19" cy="151.05" r="1"></circle>
                        <circle id="Oval" cx="361.2" cy="151.05" r="1"></circle>
                        <circle id="Oval" cx="376.21" cy="151.05" r="1"></circle>
                        <circle id="Oval" cx="15.94" cy="166.06" r="1"></circle>
                        <circle id="Oval" cx="0.94" cy="166.06" r="1"></circle>
                        <circle id="Oval" cx="30.95" cy="166.06" r="1"></circle>
                        <circle id="Oval" cx="45.96" cy="166.06" r="1"></circle>
                        <circle id="Oval" cx="60.97" cy="166.06" r="1"></circle>
                        <circle id="Oval" cx="75.99" cy="166.06" r="1"></circle>
                        <circle id="Oval" cx="91" cy="166.06" r="1"></circle>
                        <circle id="Oval" cx="106.01" cy="166.06" r="1"></circle>
                        <circle id="Oval" cx="121.02" cy="166.06" r="1"></circle>
                        <circle id="Oval" cx="136.03" cy="166.06" r="1"></circle>
                        <circle id="Oval" cx="151.04" cy="166.06" r="1"></circle>
                        <circle id="Oval" cx="166.05" cy="166.06" r="1"></circle>
                        <circle id="Oval" cx="181.06" cy="166.06" r="1"></circle>
                        <circle id="Oval" cx="196.08" cy="166.06" r="1"></circle>
                        <circle id="Oval" cx="211.09" cy="166.06" r="1"></circle>
                        <circle id="Oval" cx="226.1" cy="166.06" r="1"></circle>
                        <circle id="Oval" cx="241.11" cy="166.06" r="1"></circle>
                        <circle id="Oval" cx="256.12" cy="166.06" r="1"></circle>
                        <circle id="Oval" cx="271.13" cy="166.06" r="1"></circle>
                        <circle id="Oval" cx="286.14" cy="166.06" r="1"></circle>
                        <circle id="Oval" cx="301.15" cy="166.06" r="1"></circle>
                        <circle id="Oval" cx="316.17" cy="166.06" r="1"></circle>
                        <circle id="Oval" cx="331.18" cy="166.06" r="1"></circle>
                        <circle id="Oval" cx="346.19" cy="166.06" r="1"></circle>
                        <circle id="Oval" cx="361.2" cy="166.06" r="1"></circle>
                        <circle id="Oval" cx="376.21" cy="166.06" r="1"></circle>
                        <circle id="Oval" cx="390.21" cy="0.94" r="1"></circle>
                        <circle id="Oval" cx="390.21" cy="15.95" r="1"></circle>
                        <circle id="Oval" cx="390.21" cy="30.96" r="1"></circle>
                        <circle id="Oval" cx="390.21" cy="45.97" r="1"></circle>
                        <circle id="Oval" cx="390.21" cy="60.98" r="1"></circle>
                        <circle id="Oval" cx="390.21" cy="75.99" r="1"></circle>
                        <circle id="Oval" cx="390.21" cy="91.01" r="1"></circle>
                        <circle id="Oval" cx="390.21" cy="106.02" r="1"></circle>
                        <circle id="Oval" cx="390.21" cy="121.03" r="1"></circle>
                        <circle id="Oval" cx="390.21" cy="136.04" r="1"></circle>
                        <circle id="Oval" cx="390.21" cy="151.05" r="1"></circle>
                        <circle id="Oval" cx="390.21" cy="166.06" r="1"></circle>
                    </g>
                </g>
                <g id="b" transform="translate(34.950000, 12.940000)">
                    <line x1="165.13" y1="114.8" x2="165.13" y2="135.1" id="Path" stroke="#EC7C75" stroke-width="1.5"></line>
                    <g id="Group" transform="translate(109.400000, 38.808841)" stroke-width="1.5">
                        <path d="M45.34,96.2911586 L45.34,90.4611586 C45.34,87.5411586 44.18,84.7411586 42.12,82.6811586 L15.16,55.7211586 L8.4,48.9611586 C-2.8,37.7611586 -2.8,19.6011586 8.4,8.40115859 C19.6,-2.79884141 37.76,-2.79884141 48.96,8.40115859 L55.73,15.1611586 L62.49,8.40115859 C73.56,-2.66884141 91.42,-2.79884141 102.65,8.01115859 C113.88,18.8211586 113.97,38.0511586 102.59,49.4211586 L69.3,82.7111586 C67.24,84.7711586 66.08,87.5711586 66.08,90.4911586 L66.08,96.2911586" id="Path" stroke="#C18AE2"></path>
                        <path d="M18.34,39.0211586 C15.58,36.2611586 14.05,32.5911586 14.05,28.6811586 C14.05,24.7711586 15.57,21.1011586 18.33,18.3411586 C21.1,15.5711586 24.77,14.0511586 28.68,14.0511586 C32.59,14.0511586 36.25,15.5711586 39.02,18.3311586 L55.73,35.0311586 L72.43,18.3311586 C75.19,15.5711586 78.86,14.0411586 82.77,14.0411586 C86.68,14.0411586 90.35,15.5611586 93.11,18.3311586 C95.87,21.0911586 97.39,24.7611586 97.39,28.6711586 C97.39,32.5811586 95.87,36.2511586 93.11,39.0111586 L55.72,76.4011586 L18.34,39.0111586 L18.34,39.0211586 Z" id="Path" stroke="#EC7C75"></path>
                    </g>
                    <g id="Group" transform="translate(146.110000, 135.100000)" stroke="#C18AE2" stroke-width="1.5">
                        <rect id="Rectangle" x="0" y="15.01" width="38.03" height="7.51" rx="3.75"></rect>
                        <rect id="Rectangle" x="0" y="7.53" width="38.03" height="7.51" rx="3.75"></rect>
                        <rect id="Rectangle" x="0" y="0" width="38.03" height="7.51" rx="3.75"></rect>
                        <rect id="Rectangle" x="0" y="22.52" width="38.03" height="7.51" rx="3.75"></rect>
                    </g>
                    <g id="Group" fill="#3F5DF5" fill-rule="nonzero" stroke="#89E260">
                        <g transform="translate(15.010000, 89.570000)" id="Path">
                            <line x1="75.06" y1="0.5" x2="-1.42108547e-14" y2="0.5"></line>
                            <line x1="300.23" y1="0.5" x2="225.17" y2="0.5"></line>
                        </g>
                        <line x1="75.06" y1="120.09" x2="0" y2="150.11" id="Path"></line>
                        <line x1="330.25" y1="30.02" x2="255.19" y2="60.04" id="Path"></line>
                        <line x1="255.19" y1="120.09" x2="330.25" y2="150.11" id="Path"></line>
                        <line x1="0" y1="30.02" x2="75.06" y2="60.04" id="Path"></line>
                        <g transform="translate(90.070000, 0.000000)" id="Path">
                            <line x1="30.02" y1="135.1" x2="0" y2="165.12"></line>
                            <line x1="165.12" y1="2.22044605e-15" x2="135.1" y2="30.02"></line>
                        </g>
                        <line x1="201.33" y1="0" x2="192.74" y2="20.72" id="Path"></line>
                        <line x1="165.13" y1="0" x2="165.13" y2="30.02" id="Path"></line>
                        <g transform="translate(75.060000, 0.000000)" id="Path">
                            <line x1="135.1" y1="135.1" x2="165.12" y2="165.12"></line>
                            <line x1="0" y1="0" x2="30.02" y2="30.02"></line>
                        </g>
                        <line x1="128.89" y1="0" x2="137.48" y2="20.72" id="Path"></line>
                    </g>
                    <circle id="Oval" fill="#011936" fill-rule="nonzero" cx="165.12" cy="135.1" r="1.67"></circle>
                    <circle id="Oval" fill="#011936" fill-rule="nonzero" cx="120.09" cy="44.89" r="1.67"></circle>
                    <circle id="Oval" fill="#011936" fill-rule="nonzero" cx="255.19" cy="120.09" r="1.67"></circle>
                </g>
            </g>
        </g>
    </g>
</svg>