<?xml version="1.0" encoding="UTF-8"?>
<svg width="392px" height="167px" viewBox="0 0 392 167" version="1.1" xmlns="http://www.w3.org/2000/svg" xmlns:xlink="http://www.w3.org/1999/xlink">
    <title>DCEC5423-E947-4024-A155-58485F7DDF55@1x</title>
    <g id="System_Brand" stroke="none" stroke-width="1" fill="none" fill-rule="evenodd">
        <g id="System/Illustration-Library" transform="translate(-534.000000, -234.000000)">
            <g id="Group" transform="translate(530.000000, 222.010000)">
                <g id="Giving101_a" transform="translate(4.000000, 12.000000)" fill="#D9DCE7" fill-rule="nonzero">
                    <g id="Group">
                        <circle id="Oval" cx="15.94" cy="0.94" r="1"></circle>
                        <circle id="Oval" cx="0.94" cy="0.94" r="1"></circle>
                        <circle id="Oval" cx="30.95" cy="0.94" r="1"></circle>
                        <circle id="Oval" cx="45.96" cy="0.94" r="1"></circle>
                        <circle id="Oval" cx="60.97" cy="0.94" r="1"></circle>
                        <circle id="Oval" cx="75.99" cy="0.94" r="1"></circle>
                        <circle id="Oval" cx="91" cy="0.94" r="1"></circle>
                        <circle id="Oval" cx="106.01" cy="0.94" r="1"></circle>
                        <circle id="Oval" cx="121.02" cy="0.94" r="1"></circle>
                        <circle id="Oval" cx="136.03" cy="0.94" r="1"></circle>
                        <circle id="Oval" cx="151.04" cy="0.94" r="1"></circle>
                        <circle id="Oval" cx="166.05" cy="0.94" r="1"></circle>
                        <circle id="Oval" cx="181.06" cy="0.94" r="1"></circle>
                        <circle id="Oval" cx="196.08" cy="0.94" r="1"></circle>
                        <circle id="Oval" cx="211.09" cy="0.94" r="1"></circle>
                        <circle id="Oval" cx="226.1" cy="0.94" r="1"></circle>
                        <circle id="Oval" cx="241.11" cy="0.94" r="1"></circle>
                        <circle id="Oval" cx="256.12" cy="0.94" r="1"></circle>
                        <circle id="Oval" cx="271.13" cy="0.94" r="1"></circle>
                        <circle id="Oval" cx="286.14" cy="0.94" r="1"></circle>
                        <circle id="Oval" cx="301.15" cy="0.94" r="1"></circle>
                        <circle id="Oval" cx="316.17" cy="0.94" r="1"></circle>
                        <circle id="Oval" cx="331.18" cy="0.94" r="1"></circle>
                        <circle id="Oval" cx="346.19" cy="0.94" r="1"></circle>
                        <circle id="Oval" cx="361.2" cy="0.94" r="1"></circle>
                        <circle id="Oval" cx="376.21" cy="0.94" r="1"></circle>
                        <circle id="Oval" cx="15.94" cy="15.95" r="1"></circle>
                        <circle id="Oval" cx="0.94" cy="15.95" r="1"></circle>
                        <circle id="Oval" cx="30.95" cy="15.95" r="1"></circle>
                        <circle id="Oval" cx="45.96" cy="15.95" r="1"></circle>
                        <circle id="Oval" cx="60.97" cy="15.95" r="1"></circle>
                        <circle id="Oval" cx="75.99" cy="15.95" r="1"></circle>
                        <circle id="Oval" cx="91" cy="15.95" r="1"></circle>
                        <circle id="Oval" cx="106.01" cy="15.95" r="1"></circle>
                        <circle id="Oval" cx="121.02" cy="15.95" r="1"></circle>
                        <circle id="Oval" cx="136.03" cy="15.95" r="1"></circle>
                        <circle id="Oval" cx="151.04" cy="15.95" r="1"></circle>
                        <circle id="Oval" cx="166.05" cy="15.95" r="1"></circle>
                        <circle id="Oval" cx="181.06" cy="15.95" r="1"></circle>
                        <circle id="Oval" cx="196.08" cy="15.95" r="1"></circle>
                        <circle id="Oval" cx="211.09" cy="15.95" r="1"></circle>
                        <circle id="Oval" cx="226.1" cy="15.95" r="1"></circle>
                        <circle id="Oval" cx="241.11" cy="15.95" r="1"></circle>
                        <circle id="Oval" cx="256.12" cy="15.95" r="1"></circle>
                        <circle id="Oval" cx="271.13" cy="15.95" r="1"></circle>
                        <circle id="Oval" cx="286.14" cy="15.95" r="1"></circle>
                        <circle id="Oval" cx="301.15" cy="15.95" r="1"></circle>
                        <circle id="Oval" cx="316.17" cy="15.95" r="1"></circle>
                        <circle id="Oval" cx="331.18" cy="15.95" r="1"></circle>
                        <circle id="Oval" cx="346.19" cy="15.95" r="1"></circle>
                        <circle id="Oval" cx="361.2" cy="15.95" r="1"></circle>
                        <circle id="Oval" cx="376.21" cy="15.95" r="1"></circle>
                        <circle id="Oval" cx="15.94" cy="30.96" r="1"></circle>
                        <circle id="Oval" cx="0.94" cy="30.96" r="1"></circle>
                        <circle id="Oval" cx="30.95" cy="30.96" r="1"></circle>
                        <circle id="Oval" cx="45.96" cy="30.96" r="1"></circle>
                        <circle id="Oval" cx="60.97" cy="30.96" r="1"></circle>
                        <circle id="Oval" cx="75.99" cy="30.96" r="1"></circle>
                        <circle id="Oval" cx="91" cy="30.96" r="1"></circle>
                        <circle id="Oval" cx="106.01" cy="30.96" r="1"></circle>
                        <circle id="Oval" cx="121.02" cy="30.96" r="1"></circle>
                        <circle id="Oval" cx="136.03" cy="30.96" r="1"></circle>
                        <circle id="Oval" cx="151.04" cy="30.96" r="1"></circle>
                        <circle id="Oval" cx="166.05" cy="30.96" r="1"></circle>
                        <circle id="Oval" cx="181.06" cy="30.96" r="1"></circle>
                        <circle id="Oval" cx="196.08" cy="30.96" r="1"></circle>
                        <circle id="Oval" cx="211.09" cy="30.96" r="1"></circle>
                        <circle id="Oval" cx="226.1" cy="30.96" r="1"></circle>
                        <circle id="Oval" cx="241.11" cy="30.96" r="1"></circle>
                        <circle id="Oval" cx="256.12" cy="30.96" r="1"></circle>
                        <circle id="Oval" cx="271.13" cy="30.96" r="1"></circle>
                        <circle id="Oval" cx="286.14" cy="30.96" r="1"></circle>
                        <circle id="Oval" cx="301.15" cy="30.96" r="1"></circle>
                        <circle id="Oval" cx="316.17" cy="30.96" r="1"></circle>
                        <circle id="Oval" cx="331.18" cy="30.96" r="1"></circle>
                        <circle id="Oval" cx="346.19" cy="30.96" r="1"></circle>
                        <circle id="Oval" cx="361.2" cy="30.96" r="1"></circle>
                        <circle id="Oval" cx="376.21" cy="30.96" r="1"></circle>
                        <circle id="Oval" cx="15.94" cy="45.97" r="1"></circle>
                        <circle id="Oval" cx="0.94" cy="45.97" r="1"></circle>
                        <circle id="Oval" cx="30.95" cy="45.97" r="1"></circle>
                        <circle id="Oval" cx="45.96" cy="45.97" r="1"></circle>
                        <circle id="Oval" cx="60.97" cy="45.97" r="1"></circle>
                        <circle id="Oval" cx="75.99" cy="45.97" r="1"></circle>
                        <circle id="Oval" cx="91" cy="45.97" r="1"></circle>
                        <circle id="Oval" cx="106.01" cy="45.97" r="1"></circle>
                        <circle id="Oval" cx="121.02" cy="45.97" r="1"></circle>
                        <circle id="Oval" cx="136.03" cy="45.97" r="1"></circle>
                        <circle id="Oval" cx="151.04" cy="45.97" r="1"></circle>
                        <circle id="Oval" cx="166.05" cy="45.97" r="1"></circle>
                        <circle id="Oval" cx="181.06" cy="45.97" r="1"></circle>
                        <circle id="Oval" cx="196.08" cy="45.97" r="1"></circle>
                        <circle id="Oval" cx="211.09" cy="45.97" r="1"></circle>
                        <circle id="Oval" cx="226.1" cy="45.97" r="1"></circle>
                        <circle id="Oval" cx="241.11" cy="45.97" r="1"></circle>
                        <circle id="Oval" cx="256.12" cy="45.97" r="1"></circle>
                        <circle id="Oval" cx="271.13" cy="45.97" r="1"></circle>
                        <circle id="Oval" cx="286.14" cy="45.97" r="1"></circle>
                        <circle id="Oval" cx="301.15" cy="45.97" r="1"></circle>
                        <circle id="Oval" cx="316.17" cy="45.97" r="1"></circle>
                        <circle id="Oval" cx="331.18" cy="45.97" r="1"></circle>
                        <circle id="Oval" cx="346.19" cy="45.97" r="1"></circle>
                        <circle id="Oval" cx="361.2" cy="45.97" r="1"></circle>
                        <circle id="Oval" cx="376.21" cy="45.97" r="1"></circle>
                        <circle id="Oval" cx="15.94" cy="60.98" r="1"></circle>
                        <circle id="Oval" cx="0.94" cy="60.98" r="1"></circle>
                        <circle id="Oval" cx="30.95" cy="60.98" r="1"></circle>
                        <circle id="Oval" cx="45.96" cy="60.98" r="1"></circle>
                        <circle id="Oval" cx="60.97" cy="60.98" r="1"></circle>
                        <circle id="Oval" cx="75.99" cy="60.98" r="1"></circle>
                        <circle id="Oval" cx="91" cy="60.98" r="1"></circle>
                        <circle id="Oval" cx="106.01" cy="60.98" r="1"></circle>
                        <circle id="Oval" cx="121.02" cy="60.98" r="1"></circle>
                        <circle id="Oval" cx="136.03" cy="60.98" r="1"></circle>
                        <circle id="Oval" cx="151.04" cy="60.98" r="1"></circle>
                        <circle id="Oval" cx="166.05" cy="60.98" r="1"></circle>
                        <circle id="Oval" cx="181.06" cy="60.98" r="1"></circle>
                        <circle id="Oval" cx="196.08" cy="60.98" r="1"></circle>
                        <circle id="Oval" cx="211.09" cy="60.98" r="1"></circle>
                        <circle id="Oval" cx="226.1" cy="60.98" r="1"></circle>
                        <circle id="Oval" cx="241.11" cy="60.98" r="1"></circle>
                        <circle id="Oval" cx="256.12" cy="60.98" r="1"></circle>
                        <circle id="Oval" cx="271.13" cy="60.98" r="1"></circle>
                        <circle id="Oval" cx="286.14" cy="60.98" r="1"></circle>
                        <circle id="Oval" cx="301.15" cy="60.98" r="1"></circle>
                        <circle id="Oval" cx="316.17" cy="60.98" r="1"></circle>
                        <circle id="Oval" cx="331.18" cy="60.98" r="1"></circle>
                        <circle id="Oval" cx="346.19" cy="60.98" r="1"></circle>
                        <circle id="Oval" cx="361.2" cy="60.98" r="1"></circle>
                        <circle id="Oval" cx="376.21" cy="60.98" r="1"></circle>
                        <circle id="Oval" cx="15.94" cy="75.99" r="1"></circle>
                        <circle id="Oval" cx="0.94" cy="75.99" r="1"></circle>
                        <circle id="Oval" cx="30.95" cy="75.99" r="1"></circle>
                        <circle id="Oval" cx="45.96" cy="75.99" r="1"></circle>
                        <circle id="Oval" cx="60.97" cy="75.99" r="1"></circle>
                        <circle id="Oval" cx="75.99" cy="75.99" r="1"></circle>
                        <circle id="Oval" cx="91" cy="75.99" r="1"></circle>
                        <circle id="Oval" cx="106.01" cy="75.99" r="1"></circle>
                        <circle id="Oval" cx="121.02" cy="75.99" r="1"></circle>
                        <circle id="Oval" cx="136.03" cy="75.99" r="1"></circle>
                        <circle id="Oval" cx="151.04" cy="75.99" r="1"></circle>
                        <circle id="Oval" cx="166.05" cy="75.99" r="1"></circle>
                        <circle id="Oval" cx="181.06" cy="75.99" r="1"></circle>
                        <circle id="Oval" cx="196.08" cy="75.99" r="1"></circle>
                        <circle id="Oval" cx="211.09" cy="75.99" r="1"></circle>
                        <circle id="Oval" cx="226.1" cy="75.99" r="1"></circle>
                        <circle id="Oval" cx="241.11" cy="75.99" r="1"></circle>
                        <circle id="Oval" cx="256.12" cy="75.99" r="1"></circle>
                        <circle id="Oval" cx="271.13" cy="75.99" r="1"></circle>
                        <circle id="Oval" cx="286.14" cy="75.99" r="1"></circle>
                        <circle id="Oval" cx="301.15" cy="75.99" r="1"></circle>
                        <circle id="Oval" cx="316.17" cy="75.99" r="1"></circle>
                        <circle id="Oval" cx="331.18" cy="75.99" r="1"></circle>
                        <circle id="Oval" cx="346.19" cy="75.99" r="1"></circle>
                        <circle id="Oval" cx="361.2" cy="75.99" r="1"></circle>
                        <circle id="Oval" cx="376.21" cy="75.99" r="1"></circle>
                        <circle id="Oval" cx="15.94" cy="91.01" r="1"></circle>
                        <circle id="Oval" cx="0.94" cy="91.01" r="1"></circle>
                        <circle id="Oval" cx="30.95" cy="91.01" r="1"></circle>
                        <circle id="Oval" cx="45.96" cy="91.01" r="1"></circle>
                        <circle id="Oval" cx="60.97" cy="91.01" r="1"></circle>
                        <circle id="Oval" cx="75.99" cy="91.01" r="1"></circle>
                        <circle id="Oval" cx="91" cy="91.01" r="1"></circle>
                        <circle id="Oval" cx="106.01" cy="91.01" r="1"></circle>
                        <circle id="Oval" cx="121.02" cy="91.01" r="1"></circle>
                        <circle id="Oval" cx="136.03" cy="91.01" r="1"></circle>
                        <circle id="Oval" cx="151.04" cy="91.01" r="1"></circle>
                        <circle id="Oval" cx="166.05" cy="91.01" r="1"></circle>
                        <circle id="Oval" cx="181.06" cy="91.01" r="1"></circle>
                        <circle id="Oval" cx="196.08" cy="91.01" r="1"></circle>
                        <circle id="Oval" cx="211.09" cy="91.01" r="1"></circle>
                        <circle id="Oval" cx="226.1" cy="91.01" r="1"></circle>
                        <circle id="Oval" cx="241.11" cy="91.01" r="1"></circle>
                        <circle id="Oval" cx="256.12" cy="91.01" r="1"></circle>
                        <circle id="Oval" cx="271.13" cy="91.01" r="1"></circle>
                        <circle id="Oval" cx="286.14" cy="91.01" r="1"></circle>
                        <circle id="Oval" cx="301.15" cy="91.01" r="1"></circle>
                        <circle id="Oval" cx="316.17" cy="91.01" r="1"></circle>
                        <circle id="Oval" cx="331.18" cy="91.01" r="1"></circle>
                        <circle id="Oval" cx="346.19" cy="91.01" r="1"></circle>
                        <circle id="Oval" cx="361.2" cy="91.01" r="1"></circle>
                        <circle id="Oval" cx="376.21" cy="91.01" r="1"></circle>
                        <circle id="Oval" cx="15.94" cy="106.02" r="1"></circle>
                        <circle id="Oval" cx="0.94" cy="106.02" r="1"></circle>
                        <circle id="Oval" cx="30.95" cy="106.02" r="1"></circle>
                        <circle id="Oval" cx="45.96" cy="106.02" r="1"></circle>
                        <circle id="Oval" cx="60.97" cy="106.02" r="1"></circle>
                        <circle id="Oval" cx="75.99" cy="106.02" r="1"></circle>
                        <circle id="Oval" cx="91" cy="106.02" r="1"></circle>
                        <circle id="Oval" cx="106.01" cy="106.02" r="1"></circle>
                        <circle id="Oval" cx="121.02" cy="106.02" r="1"></circle>
                        <circle id="Oval" cx="136.03" cy="106.02" r="1"></circle>
                        <circle id="Oval" cx="151.04" cy="106.02" r="1"></circle>
                        <circle id="Oval" cx="166.05" cy="106.02" r="1"></circle>
                        <circle id="Oval" cx="181.06" cy="106.02" r="1"></circle>
                        <circle id="Oval" cx="196.08" cy="106.02" r="1"></circle>
                        <circle id="Oval" cx="211.09" cy="106.02" r="1"></circle>
                        <circle id="Oval" cx="226.1" cy="106.02" r="1"></circle>
                        <circle id="Oval" cx="241.11" cy="106.02" r="1"></circle>
                        <circle id="Oval" cx="256.12" cy="106.02" r="1"></circle>
                        <circle id="Oval" cx="271.13" cy="106.02" r="1"></circle>
                        <circle id="Oval" cx="286.14" cy="106.02" r="1"></circle>
                        <circle id="Oval" cx="301.15" cy="106.02" r="1"></circle>
                        <circle id="Oval" cx="316.17" cy="106.02" r="1"></circle>
                        <circle id="Oval" cx="331.18" cy="106.02" r="1"></circle>
                        <circle id="Oval" cx="346.19" cy="106.02" r="1"></circle>
                        <circle id="Oval" cx="361.2" cy="106.02" r="1"></circle>
                        <circle id="Oval" cx="376.21" cy="106.02" r="1"></circle>
                        <circle id="Oval" cx="15.94" cy="121.03" r="1"></circle>
                        <circle id="Oval" cx="0.94" cy="121.03" r="1"></circle>
                        <circle id="Oval" cx="30.95" cy="121.03" r="1"></circle>
                        <circle id="Oval" cx="45.96" cy="121.03" r="1"></circle>
                        <circle id="Oval" cx="60.97" cy="121.03" r="1"></circle>
                        <circle id="Oval" cx="75.99" cy="121.03" r="1"></circle>
                        <circle id="Oval" cx="91" cy="121.03" r="1"></circle>
                        <circle id="Oval" cx="106.01" cy="121.03" r="1"></circle>
                        <circle id="Oval" cx="121.02" cy="121.03" r="1"></circle>
                        <circle id="Oval" cx="136.03" cy="121.03" r="1"></circle>
                        <circle id="Oval" cx="151.04" cy="121.03" r="1"></circle>
                        <circle id="Oval" cx="166.05" cy="121.03" r="1"></circle>
                        <circle id="Oval" cx="181.06" cy="121.03" r="1"></circle>
                        <circle id="Oval" cx="196.08" cy="121.03" r="1"></circle>
                        <circle id="Oval" cx="211.09" cy="121.03" r="1"></circle>
                        <circle id="Oval" cx="226.1" cy="121.03" r="1"></circle>
                        <circle id="Oval" cx="241.11" cy="121.03" r="1"></circle>
                        <circle id="Oval" cx="256.12" cy="121.03" r="1"></circle>
                        <circle id="Oval" cx="271.13" cy="121.03" r="1"></circle>
                        <circle id="Oval" cx="286.14" cy="121.03" r="1"></circle>
                        <circle id="Oval" cx="301.15" cy="121.03" r="1"></circle>
                        <circle id="Oval" cx="316.17" cy="121.03" r="1"></circle>
                        <circle id="Oval" cx="331.18" cy="121.03" r="1"></circle>
                        <circle id="Oval" cx="346.19" cy="121.03" r="1"></circle>
                        <circle id="Oval" cx="361.2" cy="121.03" r="1"></circle>
                        <circle id="Oval" cx="376.21" cy="121.03" r="1"></circle>
                        <circle id="Oval" cx="15.94" cy="136.04" r="1"></circle>
                        <circle id="Oval" cx="0.94" cy="136.04" r="1"></circle>
                        <circle id="Oval" cx="30.95" cy="136.04" r="1"></circle>
                        <circle id="Oval" cx="45.96" cy="136.04" r="1"></circle>
                        <circle id="Oval" cx="60.97" cy="136.04" r="1"></circle>
                        <circle id="Oval" cx="75.99" cy="136.04" r="1"></circle>
                        <circle id="Oval" cx="91" cy="136.04" r="1"></circle>
                        <circle id="Oval" cx="106.01" cy="136.04" r="1"></circle>
                        <circle id="Oval" cx="121.02" cy="136.04" r="1"></circle>
                        <circle id="Oval" cx="136.03" cy="136.04" r="1"></circle>
                        <circle id="Oval" cx="151.04" cy="136.04" r="1"></circle>
                        <circle id="Oval" cx="166.05" cy="136.04" r="1"></circle>
                        <circle id="Oval" cx="181.06" cy="136.04" r="1"></circle>
                        <circle id="Oval" cx="196.08" cy="136.04" r="1"></circle>
                        <circle id="Oval" cx="211.09" cy="136.04" r="1"></circle>
                        <circle id="Oval" cx="226.1" cy="136.04" r="1"></circle>
                        <circle id="Oval" cx="241.11" cy="136.04" r="1"></circle>
                        <circle id="Oval" cx="256.12" cy="136.04" r="1"></circle>
                        <circle id="Oval" cx="271.13" cy="136.04" r="1"></circle>
                        <circle id="Oval" cx="286.14" cy="136.04" r="1"></circle>
                        <circle id="Oval" cx="301.15" cy="136.04" r="1"></circle>
                        <circle id="Oval" cx="316.17" cy="136.04" r="1"></circle>
                        <circle id="Oval" cx="331.18" cy="136.04" r="1"></circle>
                        <circle id="Oval" cx="346.19" cy="136.04" r="1"></circle>
                        <circle id="Oval" cx="361.2" cy="136.04" r="1"></circle>
                        <circle id="Oval" cx="376.21" cy="136.04" r="1"></circle>
                        <circle id="Oval" cx="15.94" cy="151.05" r="1"></circle>
                        <circle id="Oval" cx="0.94" cy="151.05" r="1"></circle>
                        <circle id="Oval" cx="30.95" cy="151.05" r="1"></circle>
                        <circle id="Oval" cx="45.96" cy="151.05" r="1"></circle>
                        <circle id="Oval" cx="60.97" cy="151.05" r="1"></circle>
                        <circle id="Oval" cx="75.99" cy="151.05" r="1"></circle>
                        <circle id="Oval" cx="91" cy="151.05" r="1"></circle>
                        <circle id="Oval" cx="106.01" cy="151.05" r="1"></circle>
                        <circle id="Oval" cx="121.02" cy="151.05" r="1"></circle>
                        <circle id="Oval" cx="136.03" cy="151.05" r="1"></circle>
                        <circle id="Oval" cx="151.04" cy="151.05" r="1"></circle>
                        <circle id="Oval" cx="166.05" cy="151.05" r="1"></circle>
                        <circle id="Oval" cx="181.06" cy="151.05" r="1"></circle>
                        <circle id="Oval" cx="196.08" cy="151.05" r="1"></circle>
                        <circle id="Oval" cx="211.09" cy="151.05" r="1"></circle>
                        <circle id="Oval" cx="226.1" cy="151.05" r="1"></circle>
                        <circle id="Oval" cx="241.11" cy="151.05" r="1"></circle>
                        <circle id="Oval" cx="256.12" cy="151.05" r="1"></circle>
                        <circle id="Oval" cx="271.13" cy="151.05" r="1"></circle>
                        <circle id="Oval" cx="286.14" cy="151.05" r="1"></circle>
                        <circle id="Oval" cx="301.15" cy="151.05" r="1"></circle>
                        <circle id="Oval" cx="316.17" cy="151.05" r="1"></circle>
                        <circle id="Oval" cx="331.18" cy="151.05" r="1"></circle>
                        <circle id="Oval" cx="346.19" cy="151.05" r="1"></circle>
                        <circle id="Oval" cx="361.2" cy="151.05" r="1"></circle>
                        <circle id="Oval" cx="376.21" cy="151.05" r="1"></circle>
                        <circle id="Oval" cx="15.94" cy="166.06" r="1"></circle>
                        <circle id="Oval" cx="0.94" cy="166.06" r="1"></circle>
                        <circle id="Oval" cx="30.95" cy="166.06" r="1"></circle>
                        <circle id="Oval" cx="45.96" cy="166.06" r="1"></circle>
                        <circle id="Oval" cx="60.97" cy="166.06" r="1"></circle>
                        <circle id="Oval" cx="75.99" cy="166.06" r="1"></circle>
                        <circle id="Oval" cx="91" cy="166.06" r="1"></circle>
                        <circle id="Oval" cx="106.01" cy="166.06" r="1"></circle>
                        <circle id="Oval" cx="121.02" cy="166.06" r="1"></circle>
                        <circle id="Oval" cx="136.03" cy="166.06" r="1"></circle>
                        <circle id="Oval" cx="151.04" cy="166.06" r="1"></circle>
                        <circle id="Oval" cx="166.05" cy="166.06" r="1"></circle>
                        <circle id="Oval" cx="181.06" cy="166.06" r="1"></circle>
                        <circle id="Oval" cx="196.08" cy="166.06" r="1"></circle>
                        <circle id="Oval" cx="211.09" cy="166.06" r="1"></circle>
                        <circle id="Oval" cx="226.1" cy="166.06" r="1"></circle>
                        <circle id="Oval" cx="241.11" cy="166.06" r="1"></circle>
                        <circle id="Oval" cx="256.12" cy="166.06" r="1"></circle>
                        <circle id="Oval" cx="271.13" cy="166.06" r="1"></circle>
                        <circle id="Oval" cx="286.14" cy="166.06" r="1"></circle>
                        <circle id="Oval" cx="301.15" cy="166.06" r="1"></circle>
                        <circle id="Oval" cx="316.17" cy="166.06" r="1"></circle>
                        <circle id="Oval" cx="331.18" cy="166.06" r="1"></circle>
                        <circle id="Oval" cx="346.19" cy="166.06" r="1"></circle>
                        <circle id="Oval" cx="361.2" cy="166.06" r="1"></circle>
                        <circle id="Oval" cx="376.21" cy="166.06" r="1"></circle>
                        <circle id="Oval" cx="390.21" cy="0.94" r="1"></circle>
                        <circle id="Oval" cx="390.21" cy="15.95" r="1"></circle>
                        <circle id="Oval" cx="390.21" cy="30.96" r="1"></circle>
                        <circle id="Oval" cx="390.21" cy="45.97" r="1"></circle>
                        <circle id="Oval" cx="390.21" cy="60.98" r="1"></circle>
                        <circle id="Oval" cx="390.21" cy="75.99" r="1"></circle>
                        <circle id="Oval" cx="390.21" cy="91.01" r="1"></circle>
                        <circle id="Oval" cx="390.21" cy="106.02" r="1"></circle>
                        <circle id="Oval" cx="390.21" cy="121.03" r="1"></circle>
                        <circle id="Oval" cx="390.21" cy="136.04" r="1"></circle>
                        <circle id="Oval" cx="390.21" cy="151.05" r="1"></circle>
                        <circle id="Oval" cx="390.21" cy="166.06" r="1"></circle>
                    </g>
                </g>
                <g transform="translate(65.000000, 1.000000)" id="illo/ChatBubbles">
                    <g id="b" transform="translate(-0.000000, 26.817568)">
                        <polygon id="Path" stroke="#58BBBD" points="180 135.364865 0 135.364865 0 45.1182818 15.0083269 45.1182818 45.0049961 15.0394273 45.0049961 45.1182818 180 45.1182818"></polygon>
                        <polygon id="Path" stroke="#C18AE2" points="270 90.2465831 255.001665 90.2465831 224.995004 120.325438 224.995004 90.2465831 90 90.2465831 90 0 270 0"></polygon>
                        <path d="M254.492062,45.6292816 L225.004996,75.1971363 L199.734651,49.8475354 L195.51793,45.619262 C188.533363,38.6255777 188.533363,27.2733651 195.51793,20.2796807 C202.502498,13.2759768 213.8137,13.2759768 220.788276,20.2796807 L225.004996,24.5079541 L229.221716,20.2796807 C236.196292,13.2759768 247.517486,13.2759768 254.492062,20.2796807 C261.466637,27.2733651 261.466637,38.6255777 254.492062,45.619262 L254.492062,45.6292816 Z" id="Path" stroke="#EC7C75" stroke-width="1.5"></path>
                        <line x1="104.998335" y1="15.0394273" x2="180" y2="15.0394273" id="Path" stroke="#EC7C75"></line>
                        <line x1="104.998335" y1="30.0788545" x2="180" y2="30.0788545" id="Path" stroke="#EC7C75"></line>
                        <path d="M30.0066615,75.2071559 C30.0066615,66.9009032 36.7214389,60.1677286 45.0049961,60.1677286 C53.2885533,60.1677286 60.0033307,66.9009032 60.0033307,75.2071559 C60.0033307,83.5134085 53.2885533,90.2465831 45.0049961,90.2465831 L45.0049961,105.28601" id="Path" stroke="#355FFE" stroke-width="1.5"></path>
                        <line x1="75.0016654" y1="105.28601" x2="165.001665" y2="105.28601" id="Path" stroke="#355FFE"></line>
                        <line x1="75.0016654" y1="120.325438" x2="165.001665" y2="120.325438" id="Path" stroke="#355FFE"></line>
                        <line x1="45.0049961" y1="120.325438" x2="45.0049961" y2="113.522126" id="Path" stroke="#355FFE" stroke-width="1.5"></line>
                        <ellipse id="Oval" fill="#011936" fill-rule="nonzero" cx="224.995004" cy="75.2071559" rx="1.66870212" ry="1.67327405"></ellipse>
                        <ellipse id="Oval" fill="#011936" fill-rule="nonzero" cx="90" cy="45.1182818" rx="1.66870212" ry="1.67327405"></ellipse>
                        <ellipse id="Oval" fill="#011936" fill-rule="nonzero" cx="74.0623959" cy="120.325438" rx="1.66870212" ry="1.67327405"></ellipse>
                    </g>
                </g>
            </g>
        </g>
    </g>
</svg>