<?xml version="1.0" encoding="UTF-8"?>
<svg width="393px" height="168px" viewBox="0 0 393 168" version="1.1" xmlns="http://www.w3.org/2000/svg" xmlns:xlink="http://www.w3.org/1999/xlink">
    <title>D850DEF9-5B60-4F6E-87C1-5995560A03D5@1x</title>
    <g id="System_Brand" stroke="none" stroke-width="1" fill="none" fill-rule="evenodd">
        <g id="System/Illustration-Library" transform="translate(-954.000000, -238.000000)">
            <g id="Group" transform="translate(950.000000, 226.010000)">
                <g id="DonorTools_b" transform="translate(4.000000, 0.950000)">
                    <g id="a" transform="translate(0.000000, 11.050000)" fill="#D9DCE7" fill-rule="nonzero">
                        <g id="Group">
                            <circle id="Oval" cx="15.94" cy="0.94" r="1"></circle>
                            <circle id="Oval" cx="0.94" cy="1.94" r="1"></circle>
                            <circle id="Oval" cx="30.95" cy="0.94" r="1"></circle>
                            <circle id="Oval" cx="45.96" cy="0.94" r="1"></circle>
                            <circle id="Oval" cx="60.97" cy="0.94" r="1"></circle>
                            <circle id="Oval" cx="75.98" cy="0.94" r="1"></circle>
                            <circle id="Oval" cx="90.99" cy="0.94" r="1"></circle>
                            <circle id="Oval" cx="106" cy="0.94" r="1"></circle>
                            <circle id="Oval" cx="121.01" cy="0.94" r="1"></circle>
                            <circle id="Oval" cx="136.03" cy="0.94" r="1"></circle>
                            <circle id="Oval" cx="151.04" cy="0.94" r="1"></circle>
                            <circle id="Oval" cx="166.05" cy="0.94" r="1"></circle>
                            <circle id="Oval" cx="181.06" cy="0.94" r="1"></circle>
                            <circle id="Oval" cx="196.07" cy="0.94" r="1"></circle>
                            <circle id="Oval" cx="211.08" cy="0.94" r="1"></circle>
                            <circle id="Oval" cx="226.09" cy="0.94" r="1"></circle>
                            <circle id="Oval" cx="241.1" cy="0.94" r="1"></circle>
                            <circle id="Oval" cx="256.11" cy="0.94" r="1"></circle>
                            <circle id="Oval" cx="271.13" cy="0.94" r="1"></circle>
                            <circle id="Oval" cx="286.14" cy="0.94" r="1"></circle>
                            <circle id="Oval" cx="301.15" cy="0.94" r="1"></circle>
                            <circle id="Oval" cx="316.16" cy="0.94" r="1"></circle>
                            <circle id="Oval" cx="331.17" cy="0.94" r="1"></circle>
                            <circle id="Oval" cx="346.18" cy="0.94" r="1"></circle>
                            <circle id="Oval" cx="361.19" cy="0.94" r="1"></circle>
                            <circle id="Oval" cx="376.2" cy="0.94" r="1"></circle>
                            <circle id="Oval" cx="391.2" cy="0.94" r="1"></circle>
                            <circle id="Oval" cx="15.94" cy="15.95" r="1"></circle>
                            <circle id="Oval" cx="0.94" cy="16.95" r="1"></circle>
                            <circle id="Oval" cx="30.95" cy="15.95" r="1"></circle>
                            <circle id="Oval" cx="45.96" cy="15.95" r="1"></circle>
                            <circle id="Oval" cx="60.97" cy="15.95" r="1"></circle>
                            <circle id="Oval" cx="75.98" cy="15.95" r="1"></circle>
                            <circle id="Oval" cx="90.99" cy="15.95" r="1"></circle>
                            <circle id="Oval" cx="106" cy="15.95" r="1"></circle>
                            <circle id="Oval" cx="121.01" cy="15.95" r="1"></circle>
                            <circle id="Oval" cx="136.03" cy="15.95" r="1"></circle>
                            <circle id="Oval" cx="151.04" cy="15.95" r="1"></circle>
                            <circle id="Oval" cx="166.05" cy="15.95" r="1"></circle>
                            <circle id="Oval" cx="181.06" cy="15.95" r="1"></circle>
                            <circle id="Oval" cx="196.07" cy="15.95" r="1"></circle>
                            <circle id="Oval" cx="211.08" cy="15.95" r="1"></circle>
                            <circle id="Oval" cx="226.09" cy="15.95" r="1"></circle>
                            <circle id="Oval" cx="241.1" cy="15.95" r="1"></circle>
                            <circle id="Oval" cx="256.11" cy="15.95" r="1"></circle>
                            <circle id="Oval" cx="271.13" cy="15.95" r="1"></circle>
                            <circle id="Oval" cx="286.14" cy="15.95" r="1"></circle>
                            <circle id="Oval" cx="301.15" cy="15.95" r="1"></circle>
                            <circle id="Oval" cx="316.16" cy="15.95" r="1"></circle>
                            <circle id="Oval" cx="331.17" cy="15.95" r="1"></circle>
                            <circle id="Oval" cx="346.18" cy="15.95" r="1"></circle>
                            <circle id="Oval" cx="361.19" cy="15.95" r="1"></circle>
                            <circle id="Oval" cx="376.2" cy="15.95" r="1"></circle>
                            <circle id="Oval" cx="391.2" cy="15.95" r="1"></circle>
                            <circle id="Oval" cx="15.94" cy="30.96" r="1"></circle>
                            <circle id="Oval" cx="0.94" cy="31.96" r="1"></circle>
                            <circle id="Oval" cx="30.95" cy="30.96" r="1"></circle>
                            <circle id="Oval" cx="45.96" cy="30.96" r="1"></circle>
                            <circle id="Oval" cx="60.97" cy="30.96" r="1"></circle>
                            <circle id="Oval" cx="75.98" cy="30.96" r="1"></circle>
                            <circle id="Oval" cx="90.99" cy="30.96" r="1"></circle>
                            <circle id="Oval" cx="106" cy="30.96" r="1"></circle>
                            <circle id="Oval" cx="121.01" cy="30.96" r="1"></circle>
                            <circle id="Oval" cx="136.03" cy="30.96" r="1"></circle>
                            <circle id="Oval" cx="151.04" cy="30.96" r="1"></circle>
                            <circle id="Oval" cx="166.05" cy="30.96" r="1"></circle>
                            <circle id="Oval" cx="181.06" cy="30.96" r="1"></circle>
                            <circle id="Oval" cx="196.07" cy="30.96" r="1"></circle>
                            <circle id="Oval" cx="211.08" cy="30.96" r="1"></circle>
                            <circle id="Oval" cx="226.09" cy="30.96" r="1"></circle>
                            <circle id="Oval" cx="241.1" cy="30.96" r="1"></circle>
                            <circle id="Oval" cx="256.11" cy="30.96" r="1"></circle>
                            <circle id="Oval" cx="271.13" cy="30.96" r="1"></circle>
                            <circle id="Oval" cx="286.14" cy="30.96" r="1"></circle>
                            <circle id="Oval" cx="301.15" cy="30.96" r="1"></circle>
                            <circle id="Oval" cx="316.16" cy="30.96" r="1"></circle>
                            <circle id="Oval" cx="331.17" cy="30.96" r="1"></circle>
                            <circle id="Oval" cx="346.18" cy="30.96" r="1"></circle>
                            <circle id="Oval" cx="361.19" cy="30.96" r="1"></circle>
                            <circle id="Oval" cx="376.2" cy="30.96" r="1"></circle>
                            <circle id="Oval" cx="391.2" cy="30.96" r="1"></circle>
                            <circle id="Oval" cx="15.94" cy="45.97" r="1"></circle>
                            <circle id="Oval" cx="0.94" cy="46.97" r="1"></circle>
                            <circle id="Oval" cx="30.95" cy="45.97" r="1"></circle>
                            <circle id="Oval" cx="45.96" cy="45.97" r="1"></circle>
                            <circle id="Oval" cx="60.97" cy="45.97" r="1"></circle>
                            <circle id="Oval" cx="75.98" cy="45.97" r="1"></circle>
                            <circle id="Oval" cx="90.99" cy="45.97" r="1"></circle>
                            <circle id="Oval" cx="106" cy="45.97" r="1"></circle>
                            <circle id="Oval" cx="121.01" cy="45.97" r="1"></circle>
                            <circle id="Oval" cx="136.03" cy="45.97" r="1"></circle>
                            <circle id="Oval" cx="151.04" cy="45.97" r="1"></circle>
                            <circle id="Oval" cx="166.05" cy="45.97" r="1"></circle>
                            <circle id="Oval" cx="181.06" cy="45.97" r="1"></circle>
                            <circle id="Oval" cx="196.07" cy="45.97" r="1"></circle>
                            <circle id="Oval" cx="211.08" cy="45.97" r="1"></circle>
                            <circle id="Oval" cx="226.09" cy="45.97" r="1"></circle>
                            <circle id="Oval" cx="241.1" cy="45.97" r="1"></circle>
                            <circle id="Oval" cx="256.11" cy="45.97" r="1"></circle>
                            <circle id="Oval" cx="271.13" cy="45.97" r="1"></circle>
                            <circle id="Oval" cx="286.14" cy="45.97" r="1"></circle>
                            <circle id="Oval" cx="301.15" cy="45.97" r="1"></circle>
                            <circle id="Oval" cx="316.16" cy="45.97" r="1"></circle>
                            <circle id="Oval" cx="331.17" cy="45.97" r="1"></circle>
                            <circle id="Oval" cx="346.18" cy="45.97" r="1"></circle>
                            <circle id="Oval" cx="361.19" cy="45.97" r="1"></circle>
                            <circle id="Oval" cx="376.2" cy="45.97" r="1"></circle>
                            <circle id="Oval" cx="391.2" cy="45.97" r="1"></circle>
                            <circle id="Oval" cx="15.94" cy="60.98" r="1"></circle>
                            <circle id="Oval" cx="0.94" cy="61.98" r="1"></circle>
                            <circle id="Oval" cx="30.95" cy="60.98" r="1"></circle>
                            <circle id="Oval" cx="45.96" cy="60.98" r="1"></circle>
                            <circle id="Oval" cx="60.97" cy="60.98" r="1"></circle>
                            <circle id="Oval" cx="75.98" cy="60.98" r="1"></circle>
                            <circle id="Oval" cx="90.99" cy="60.98" r="1"></circle>
                            <circle id="Oval" cx="106" cy="60.98" r="1"></circle>
                            <circle id="Oval" cx="121.01" cy="60.98" r="1"></circle>
                            <circle id="Oval" cx="136.03" cy="60.98" r="1"></circle>
                            <circle id="Oval" cx="151.04" cy="60.98" r="1"></circle>
                            <circle id="Oval" cx="166.05" cy="60.98" r="1"></circle>
                            <circle id="Oval" cx="181.06" cy="60.98" r="1"></circle>
                            <circle id="Oval" cx="196.07" cy="60.98" r="1"></circle>
                            <circle id="Oval" cx="211.08" cy="60.98" r="1"></circle>
                            <circle id="Oval" cx="226.09" cy="60.98" r="1"></circle>
                            <circle id="Oval" cx="241.1" cy="60.98" r="1"></circle>
                            <circle id="Oval" cx="256.11" cy="60.98" r="1"></circle>
                            <circle id="Oval" cx="271.13" cy="60.98" r="1"></circle>
                            <circle id="Oval" cx="286.14" cy="60.98" r="1"></circle>
                            <circle id="Oval" cx="301.15" cy="60.98" r="1"></circle>
                            <circle id="Oval" cx="316.16" cy="60.98" r="1"></circle>
                            <circle id="Oval" cx="331.17" cy="60.98" r="1"></circle>
                            <circle id="Oval" cx="346.18" cy="60.98" r="1"></circle>
                            <circle id="Oval" cx="361.19" cy="60.98" r="1"></circle>
                            <circle id="Oval" cx="376.2" cy="60.98" r="1"></circle>
                            <circle id="Oval" cx="391.2" cy="60.98" r="1"></circle>
                            <circle id="Oval" cx="15.94" cy="75.99" r="1"></circle>
                            <circle id="Oval" cx="0.94" cy="76.99" r="1"></circle>
                            <circle id="Oval" cx="30.95" cy="75.99" r="1"></circle>
                            <circle id="Oval" cx="45.96" cy="75.99" r="1"></circle>
                            <circle id="Oval" cx="60.97" cy="75.99" r="1"></circle>
                            <circle id="Oval" cx="75.98" cy="75.99" r="1"></circle>
                            <circle id="Oval" cx="90.99" cy="75.99" r="1"></circle>
                            <circle id="Oval" cx="106" cy="75.99" r="1"></circle>
                            <circle id="Oval" cx="121.01" cy="75.99" r="1"></circle>
                            <circle id="Oval" cx="136.03" cy="75.99" r="1"></circle>
                            <circle id="Oval" cx="151.04" cy="75.99" r="1"></circle>
                            <circle id="Oval" cx="166.05" cy="75.99" r="1"></circle>
                            <circle id="Oval" cx="181.06" cy="75.99" r="1"></circle>
                            <circle id="Oval" cx="196.07" cy="75.99" r="1"></circle>
                            <circle id="Oval" cx="211.08" cy="75.99" r="1"></circle>
                            <circle id="Oval" cx="226.09" cy="75.99" r="1"></circle>
                            <circle id="Oval" cx="241.1" cy="75.99" r="1"></circle>
                            <circle id="Oval" cx="256.11" cy="75.99" r="1"></circle>
                            <circle id="Oval" cx="271.13" cy="75.99" r="1"></circle>
                            <circle id="Oval" cx="286.14" cy="75.99" r="1"></circle>
                            <circle id="Oval" cx="301.15" cy="75.99" r="1"></circle>
                            <circle id="Oval" cx="316.16" cy="75.99" r="1"></circle>
                            <circle id="Oval" cx="331.17" cy="75.99" r="1"></circle>
                            <circle id="Oval" cx="346.18" cy="75.99" r="1"></circle>
                            <circle id="Oval" cx="361.19" cy="75.99" r="1"></circle>
                            <circle id="Oval" cx="376.2" cy="75.99" r="1"></circle>
                            <circle id="Oval" cx="391.2" cy="75.99" r="1"></circle>
                            <circle id="Oval" cx="15.94" cy="91.01" r="1"></circle>
                            <circle id="Oval" cx="0.94" cy="92.01" r="1"></circle>
                            <circle id="Oval" cx="30.95" cy="91.01" r="1"></circle>
                            <circle id="Oval" cx="45.96" cy="91.01" r="1"></circle>
                            <circle id="Oval" cx="60.97" cy="91.01" r="1"></circle>
                            <circle id="Oval" cx="75.98" cy="91.01" r="1"></circle>
                            <circle id="Oval" cx="90.99" cy="91.01" r="1"></circle>
                            <circle id="Oval" cx="106" cy="91.01" r="1"></circle>
                            <circle id="Oval" cx="121.01" cy="91.01" r="1"></circle>
                            <circle id="Oval" cx="136.03" cy="91.01" r="1"></circle>
                            <circle id="Oval" cx="151.04" cy="91.01" r="1"></circle>
                            <circle id="Oval" cx="166.05" cy="91.01" r="1"></circle>
                            <circle id="Oval" cx="181.06" cy="91.01" r="1"></circle>
                            <circle id="Oval" cx="196.07" cy="91.01" r="1"></circle>
                            <circle id="Oval" cx="211.08" cy="91.01" r="1"></circle>
                            <circle id="Oval" cx="226.09" cy="91.01" r="1"></circle>
                            <circle id="Oval" cx="241.1" cy="91.01" r="1"></circle>
                            <circle id="Oval" cx="256.11" cy="91.01" r="1"></circle>
                            <circle id="Oval" cx="271.13" cy="91.01" r="1"></circle>
                            <circle id="Oval" cx="286.14" cy="91.01" r="1"></circle>
                            <circle id="Oval" cx="301.15" cy="91.01" r="1"></circle>
                            <circle id="Oval" cx="316.16" cy="91.01" r="1"></circle>
                            <circle id="Oval" cx="331.17" cy="91.01" r="1"></circle>
                            <circle id="Oval" cx="346.18" cy="91.01" r="1"></circle>
                            <circle id="Oval" cx="361.19" cy="91.01" r="1"></circle>
                            <circle id="Oval" cx="376.2" cy="91.01" r="1"></circle>
                            <circle id="Oval" cx="391.2" cy="91.01" r="1"></circle>
                            <circle id="Oval" cx="15.94" cy="106.02" r="1"></circle>
                            <circle id="Oval" cx="0.94" cy="107.02" r="1"></circle>
                            <circle id="Oval" cx="30.95" cy="106.02" r="1"></circle>
                            <circle id="Oval" cx="45.96" cy="106.02" r="1"></circle>
                            <circle id="Oval" cx="60.97" cy="106.02" r="1"></circle>
                            <circle id="Oval" cx="75.98" cy="106.02" r="1"></circle>
                            <circle id="Oval" cx="90.99" cy="106.02" r="1"></circle>
                            <circle id="Oval" cx="106" cy="106.02" r="1"></circle>
                            <circle id="Oval" cx="121.01" cy="106.02" r="1"></circle>
                            <circle id="Oval" cx="136.03" cy="106.02" r="1"></circle>
                            <circle id="Oval" cx="151.04" cy="106.02" r="1"></circle>
                            <circle id="Oval" cx="166.05" cy="106.02" r="1"></circle>
                            <circle id="Oval" cx="181.06" cy="106.02" r="1"></circle>
                            <circle id="Oval" cx="196.07" cy="106.02" r="1"></circle>
                            <circle id="Oval" cx="211.08" cy="106.02" r="1"></circle>
                            <circle id="Oval" cx="226.09" cy="106.02" r="1"></circle>
                            <circle id="Oval" cx="241.1" cy="106.02" r="1"></circle>
                            <circle id="Oval" cx="256.11" cy="106.02" r="1"></circle>
                            <circle id="Oval" cx="271.13" cy="106.02" r="1"></circle>
                            <circle id="Oval" cx="286.14" cy="106.02" r="1"></circle>
                            <circle id="Oval" cx="301.15" cy="106.02" r="1"></circle>
                            <circle id="Oval" cx="316.16" cy="106.02" r="1"></circle>
                            <circle id="Oval" cx="331.17" cy="106.02" r="1"></circle>
                            <circle id="Oval" cx="346.18" cy="106.02" r="1"></circle>
                            <circle id="Oval" cx="361.19" cy="106.02" r="1"></circle>
                            <circle id="Oval" cx="376.2" cy="106.02" r="1"></circle>
                            <circle id="Oval" cx="391.2" cy="106.02" r="1"></circle>
                            <circle id="Oval" cx="15.94" cy="121.03" r="1"></circle>
                            <circle id="Oval" cx="0.94" cy="122.03" r="1"></circle>
                            <circle id="Oval" cx="30.95" cy="121.03" r="1"></circle>
                            <circle id="Oval" cx="45.96" cy="121.03" r="1"></circle>
                            <circle id="Oval" cx="60.97" cy="121.03" r="1"></circle>
                            <circle id="Oval" cx="75.98" cy="121.03" r="1"></circle>
                            <circle id="Oval" cx="90.99" cy="121.03" r="1"></circle>
                            <circle id="Oval" cx="106" cy="121.03" r="1"></circle>
                            <circle id="Oval" cx="121.01" cy="121.03" r="1"></circle>
                            <circle id="Oval" cx="136.03" cy="121.03" r="1"></circle>
                            <circle id="Oval" cx="151.04" cy="121.03" r="1"></circle>
                            <circle id="Oval" cx="166.05" cy="121.03" r="1"></circle>
                            <circle id="Oval" cx="181.06" cy="121.03" r="1"></circle>
                            <circle id="Oval" cx="196.07" cy="121.03" r="1"></circle>
                            <circle id="Oval" cx="211.08" cy="121.03" r="1"></circle>
                            <circle id="Oval" cx="226.09" cy="121.03" r="1"></circle>
                            <circle id="Oval" cx="241.1" cy="121.03" r="1"></circle>
                            <circle id="Oval" cx="256.11" cy="121.03" r="1"></circle>
                            <circle id="Oval" cx="271.13" cy="121.03" r="1"></circle>
                            <circle id="Oval" cx="286.14" cy="121.03" r="1"></circle>
                            <circle id="Oval" cx="301.15" cy="121.03" r="1"></circle>
                            <circle id="Oval" cx="316.16" cy="121.03" r="1"></circle>
                            <circle id="Oval" cx="331.17" cy="121.03" r="1"></circle>
                            <circle id="Oval" cx="346.18" cy="121.03" r="1"></circle>
                            <circle id="Oval" cx="361.19" cy="121.03" r="1"></circle>
                            <circle id="Oval" cx="376.2" cy="121.03" r="1"></circle>
                            <circle id="Oval" cx="391.2" cy="121.03" r="1"></circle>
                            <circle id="Oval" cx="15.94" cy="136.04" r="1"></circle>
                            <circle id="Oval" cx="0.94" cy="137.04" r="1"></circle>
                            <circle id="Oval" cx="30.95" cy="136.04" r="1"></circle>
                            <circle id="Oval" cx="45.96" cy="136.04" r="1"></circle>
                            <circle id="Oval" cx="60.97" cy="136.04" r="1"></circle>
                            <circle id="Oval" cx="75.98" cy="136.04" r="1"></circle>
                            <circle id="Oval" cx="90.99" cy="136.04" r="1"></circle>
                            <circle id="Oval" cx="106" cy="136.04" r="1"></circle>
                            <circle id="Oval" cx="121.01" cy="136.04" r="1"></circle>
                            <circle id="Oval" cx="136.03" cy="136.04" r="1"></circle>
                            <circle id="Oval" cx="151.04" cy="136.04" r="1"></circle>
                            <circle id="Oval" cx="166.05" cy="136.04" r="1"></circle>
                            <circle id="Oval" cx="181.06" cy="136.04" r="1"></circle>
                            <circle id="Oval" cx="196.07" cy="136.04" r="1"></circle>
                            <circle id="Oval" cx="211.08" cy="136.04" r="1"></circle>
                            <circle id="Oval" cx="226.09" cy="136.04" r="1"></circle>
                            <circle id="Oval" cx="241.1" cy="136.04" r="1"></circle>
                            <circle id="Oval" cx="256.11" cy="136.04" r="1"></circle>
                            <circle id="Oval" cx="271.13" cy="136.04" r="1"></circle>
                            <circle id="Oval" cx="286.14" cy="136.04" r="1"></circle>
                            <circle id="Oval" cx="301.15" cy="136.04" r="1"></circle>
                            <circle id="Oval" cx="316.16" cy="136.04" r="1"></circle>
                            <circle id="Oval" cx="331.17" cy="136.04" r="1"></circle>
                            <circle id="Oval" cx="346.18" cy="136.04" r="1"></circle>
                            <circle id="Oval" cx="361.19" cy="136.04" r="1"></circle>
                            <circle id="Oval" cx="376.2" cy="136.04" r="1"></circle>
                            <circle id="Oval" cx="391.2" cy="136.04" r="1"></circle>
                            <circle id="Oval" cx="15.94" cy="151.05" r="1"></circle>
                            <circle id="Oval" cx="0.94" cy="152.05" r="1"></circle>
                            <circle id="Oval" cx="30.95" cy="151.05" r="1"></circle>
                            <circle id="Oval" cx="45.96" cy="151.05" r="1"></circle>
                            <circle id="Oval" cx="60.97" cy="151.05" r="1"></circle>
                            <circle id="Oval" cx="75.98" cy="151.05" r="1"></circle>
                            <circle id="Oval" cx="90.99" cy="151.05" r="1"></circle>
                            <circle id="Oval" cx="106" cy="151.05" r="1"></circle>
                            <circle id="Oval" cx="121.01" cy="151.05" r="1"></circle>
                            <circle id="Oval" cx="136.03" cy="151.05" r="1"></circle>
                            <circle id="Oval" cx="151.04" cy="151.05" r="1"></circle>
                            <circle id="Oval" cx="166.05" cy="151.05" r="1"></circle>
                            <circle id="Oval" cx="181.06" cy="151.05" r="1"></circle>
                            <circle id="Oval" cx="196.07" cy="151.05" r="1"></circle>
                            <circle id="Oval" cx="211.08" cy="151.05" r="1"></circle>
                            <circle id="Oval" cx="226.09" cy="151.05" r="1"></circle>
                            <circle id="Oval" cx="241.1" cy="151.05" r="1"></circle>
                            <circle id="Oval" cx="256.11" cy="151.05" r="1"></circle>
                            <circle id="Oval" cx="271.13" cy="151.05" r="1"></circle>
                            <circle id="Oval" cx="286.14" cy="151.05" r="1"></circle>
                            <circle id="Oval" cx="301.15" cy="151.05" r="1"></circle>
                            <circle id="Oval" cx="316.16" cy="151.05" r="1"></circle>
                            <circle id="Oval" cx="331.17" cy="151.05" r="1"></circle>
                            <circle id="Oval" cx="346.18" cy="151.05" r="1"></circle>
                            <circle id="Oval" cx="361.19" cy="151.05" r="1"></circle>
                            <circle id="Oval" cx="376.2" cy="151.05" r="1"></circle>
                            <circle id="Oval" cx="391.2" cy="151.05" r="1"></circle>
                            <circle id="Oval" cx="15.94" cy="166.06" r="1"></circle>
                            <circle id="Oval" cx="0.94" cy="167.06" r="1"></circle>
                            <circle id="Oval" cx="30.95" cy="166.06" r="1"></circle>
                            <circle id="Oval" cx="45.96" cy="166.06" r="1"></circle>
                            <circle id="Oval" cx="60.97" cy="166.06" r="1"></circle>
                            <circle id="Oval" cx="75.98" cy="166.06" r="1"></circle>
                            <circle id="Oval" cx="90.99" cy="166.06" r="1"></circle>
                            <circle id="Oval" cx="106" cy="166.06" r="1"></circle>
                            <circle id="Oval" cx="121.01" cy="166.06" r="1"></circle>
                            <circle id="Oval" cx="136.03" cy="166.06" r="1"></circle>
                            <circle id="Oval" cx="151.04" cy="166.06" r="1"></circle>
                            <circle id="Oval" cx="166.05" cy="166.06" r="1"></circle>
                            <circle id="Oval" cx="181.06" cy="166.06" r="1"></circle>
                            <circle id="Oval" cx="196.07" cy="166.06" r="1"></circle>
                            <circle id="Oval" cx="211.08" cy="166.06" r="1"></circle>
                            <circle id="Oval" cx="226.09" cy="166.06" r="1"></circle>
                            <circle id="Oval" cx="241.1" cy="166.06" r="1"></circle>
                            <circle id="Oval" cx="256.11" cy="166.06" r="1"></circle>
                            <circle id="Oval" cx="271.13" cy="166.06" r="1"></circle>
                            <circle id="Oval" cx="286.14" cy="166.06" r="1"></circle>
                            <circle id="Oval" cx="301.15" cy="166.06" r="1"></circle>
                            <circle id="Oval" cx="316.16" cy="166.06" r="1"></circle>
                            <circle id="Oval" cx="331.17" cy="166.06" r="1"></circle>
                            <circle id="Oval" cx="346.18" cy="166.06" r="1"></circle>
                            <circle id="Oval" cx="361.19" cy="166.06" r="1"></circle>
                            <circle id="Oval" cx="376.2" cy="166.06" r="1"></circle>
                            <circle id="Oval" cx="391.2" cy="166.06" r="1"></circle>
                        </g>
                    </g>
                    <g id="Group" transform="translate(45.960000, 0.000000)">
                        <line x1="285.21" y1="147.09" x2="300.22" y2="147.09" id="Path" stroke="#89E260"></line>
                        <line x1="285.21" y1="132.08" x2="300.22" y2="132.08" id="Path" stroke="#89E260"></line>
                        <polyline id="Path" stroke="#C18AE2" stroke-width="1.5" points="67.54 42.01 67.54 27 285.21 27 285.21 147.09 94.7 147.09"></polyline>
                        <line x1="67.54" y1="42.01" x2="285.21" y2="42.01" id="Path" stroke="#C18AE2" stroke-width="1.5"></line>
                        <line x1="270.2" y1="27" x2="270.2" y2="42.01" id="Path" stroke="#C18AE2"></line>
                        <g transform="translate(274.520000, 31.350000)" id="Path" stroke="#3F5DF5" stroke-width="1.5">
                            <line x1="6.3" y1="6.3" x2="0" y2="0"></line>
                            <line x1="0" y1="6.3" x2="6.3" y2="0"></line>
                        </g>
                        <polyline id="Path" stroke="#C18AE2" stroke-width="1.5" points="94.7 57.02 195.14 57.02 195.14 102.05 120.09 102.05"></polyline>
                        <line x1="210.15" y1="57.02" x2="270.2" y2="57.02" id="Path" stroke="#3F5DF5" stroke-width="1.5"></line>
                        <line x1="210.15" y1="72" x2="270.2" y2="72" id="Path" stroke="#3F5DF5" stroke-width="1.5"></line>
                        <line x1="210.15" y1="86.97" x2="270.2" y2="86.97" id="Path" stroke="#3F5DF5" stroke-width="1.5"></line>
                        <line x1="210.15" y1="101.95" x2="255.19" y2="101.95" id="Path" stroke="#3F5DF5" stroke-width="1.5"></line>
                        <g transform="translate(103.170000, 117.070000)" stroke="#C18AE2" stroke-width="1.5">
                            <rect id="Rectangle" x="46.94" y="0" width="30.02" height="15.01"></rect>
                            <polyline id="Path" points="0 0 31.93 0 31.93 15.01 8.87 15.01"></polyline>
                            <rect id="Rectangle" x="91.97" y="0" width="30.02" height="15.01"></rect>
                            <rect id="Rectangle" x="137.01" y="0" width="30.02" height="15.01"></rect>
                        </g>
                        <line x1="135.1" y1="162.1" x2="300.22" y2="162.1" id="Path" stroke="#89E260"></line>
                        <g transform="translate(0.000000, 42.010000)" stroke="#3F5DF5" stroke-width="1.5">
                            <path d="M105.08,67.55 C104.6,70.5 103.83,73.35 102.81,76.07 L115.8,83.57 L108.29,96.57 L95.3,89.07 C93.42,91.34 91.33,93.43 89.06,95.3 L96.56,108.29 L83.56,115.8 L76.06,102.81 C73.34,103.83 70.49,104.6 67.55,105.08 L67.55,120.09 L52.54,120.09 L52.54,105.08 C49.59,104.6 46.74,103.83 44.02,102.81 L36.52,115.8 L23.52,108.29 L31.02,95.3 C28.75,93.42 26.66,91.33 24.79,89.06 L11.79,96.57 L4.29,83.57 L17.28,76.07 C16.26,73.35 15.49,70.5 15.01,67.55 L0,67.55 L0,52.54 L15.01,52.54 C15.49,49.59 16.26,46.74 17.28,44.02 L4.29,36.52 L11.79,23.52 L24.79,31.03 C26.66,28.76 28.75,26.67 31.02,24.79 L23.52,11.8 L36.52,4.29 L44.02,17.28 C46.74,16.26 49.59,15.49 52.54,15.01 L52.54,0 L67.55,0 L67.55,15.01 C70.49,15.49 73.34,16.26 76.06,17.28 L83.56,4.29 L96.56,11.8 L89.06,24.79 C91.33,26.66 93.42,28.75 95.3,31.02 L108.29,23.52 L115.8,36.52 L102.81,44.02 C103.83,46.74 104.6,49.59 105.08,52.54 L120.09,52.54 L120.09,67.55 L105.08,67.55 L105.08,67.55 Z" id="Path"></path>
                            <circle id="Oval" cx="60.04" cy="60.04" r="21.17"></circle>
                        </g>
                        <circle id="Oval" fill="#011936" fill-rule="nonzero" cx="67.54" cy="42.01" r="1.67"></circle>
                        <circle id="Oval" fill="#011936" fill-rule="nonzero" cx="135.1" cy="162.1" r="1.67"></circle>
                        <circle id="Oval" fill="#011936" fill-rule="nonzero" cx="255.19" cy="101.95" r="1.67"></circle>
                    </g>
                </g>
            </g>
        </g>
    </g>
</svg>